<svg width="197" height="122" viewBox="0 0 197 122" fill="none" xmlns="http://www.w3.org/2000/svg">
<path d="M95.454 68.1818C83.454 54 84.0904 25 85.9086 12.2727L66.8181 21.8182L61.3635 46.3636C64.0908 91.3636 79.0908 100.909 81.8181 105L95.454 68.1818Z" fill="#93CA82"/>
<path d="M165 95.4545C149.727 82.3636 145.909 49.0909 145.909 34.0909L132.273 40.9091L124.091 60C127.364 91.6363 140 108.636 145.909 113.182L165 95.4545Z" fill="#93CA82"/>
<path d="M81.8181 105C89.9999 70.9091 111.364 36.3637 121.364 24.5455L145.909 34.0909C119.727 57 107.727 97.2727 105 114.545C105 114.545 88.6363 111.818 81.8181 105Z" fill="#93CA82" stroke="#19413B" stroke-width="4" stroke-linecap="round"/>
<path d="M192.273 94.0909L166.364 81.8182C165 102.273 150 108.636 141.818 109.091C144.091 112.727 152.182 120 166.364 120C180.545 120 189.545 102.727 192.273 94.0909Z" fill="#93CA82" stroke="#19413B" stroke-width="4" stroke-linecap="round"/>
<path d="M9.31435 97.8848C16.9685 64.6259 44.8984 21.1878 58.6364 2.72729L85.9092 12.2727C61.696 34.3804 45.6949 79.4307 40.1116 101.346C39.7689 102.691 38.5664 103.636 37.1783 103.636H14.053C10.9739 103.636 8.62378 100.885 9.31435 97.8848Z" fill="#93CA82" stroke="#19413B" stroke-width="4" stroke-linecap="round"/>
</svg>
